<svg width="100" height="28" viewBox="0 0 100 28" fill="none" xmlns="http://www.w3.org/2000/svg">
<path d="M22.6013 1.85268V27.5805H17.307V17.1286H5.29432V27.5805H0V1.85268H5.29432V12.2347H17.307V1.85268H22.6013Z" fill="#0D0E43"/>
<path d="M36.5343 28C34.5869 28 32.9317 27.6504 31.5686 26.9513C30.2298 26.2522 29.2074 25.2851 28.5015 24.0499C27.7956 22.8148 27.4426 21.3933 27.4426 19.7853C27.4426 18.2472 27.8564 16.8606 28.6841 15.6255C29.5117 14.3903 30.6192 13.4116 32.0067 12.6891C33.3942 11.9434 34.9399 11.5705 36.6438 11.5705C38.9319 11.5705 40.8062 12.2114 42.2668 13.4931C43.7516 14.7516 44.7131 16.5809 45.1512 18.9813L32.737 22.7566L31.6051 20.0999L40.5872 17.1985L39.5283 17.6529C39.3336 17.047 38.9806 16.5227 38.4694 16.0799C37.9826 15.6138 37.2402 15.3808 36.2422 15.3808C35.4876 15.3808 34.8182 15.5556 34.234 15.9051C33.6741 16.2314 33.236 16.7091 32.9195 17.3383C32.6274 17.9442 32.4814 18.6667 32.4814 19.5056C32.4814 20.4611 32.6639 21.2651 33.0291 21.9176C33.3942 22.5468 33.8932 23.0246 34.5261 23.3508C35.159 23.6771 35.8649 23.8402 36.6438 23.8402C37.2037 23.8402 37.7392 23.747 38.2504 23.5605C38.7859 23.3741 39.3092 23.1294 39.8204 22.8265L42.0842 26.4619C41.2322 26.928 40.3072 27.3009 39.3092 27.5805C38.3356 27.8602 37.4106 28 36.5343 28Z" fill="#0D0E43"/>
<path d="M48.8658 27.5805V0H53.9776V27.5805H48.8658ZM58.0305 17.1985L65.26 27.5805H59.3084L54.6713 19.995L58.0305 17.1985ZM52.4441 23.3508L51.9329 18.7016L61.5722 11.9201L64.6758 14.5418L52.4441 23.3508Z" fill="#0D0E43"/>
<path d="M70.295 5.59301H75.4068V12.2347H79.2771V16.0449H75.4068V27.5805H70.295V16.0449H67.8122V12.2347H70.295V5.59301Z" fill="#0D0E43"/>
<path d="M81.9263 19.7503C81.9263 18.1889 82.3036 16.7907 83.0582 15.5556C83.8371 14.3204 84.9203 13.3533 86.3078 12.6542C87.6953 11.9318 89.2896 11.5705 91.0909 11.5705C92.9165 11.5705 94.4988 11.9318 95.8376 12.6542C97.1764 13.3533 98.1987 14.3204 98.9046 15.5556C99.6349 16.7907 100 18.1889 100 19.7503C100 21.3117 99.6349 22.7216 98.9046 23.98C98.1987 25.2151 97.1764 26.1939 95.8376 26.9164C94.4988 27.6388 92.8922 28 91.0179 28C89.2653 28 87.6953 27.6737 86.3078 27.0212C84.9446 26.3687 83.8736 25.4249 83.0947 24.1898C82.3157 22.9546 81.9263 21.4748 81.9263 19.7503ZM87.0745 19.7853C87.0745 20.5776 87.2449 21.3 87.5857 21.9526C87.9265 22.5818 88.389 23.0828 88.9732 23.4557C89.5574 23.8285 90.2146 24.015 90.9449 24.015C91.7482 24.015 92.4419 23.8285 93.0261 23.4557C93.6103 23.0828 94.0606 22.5818 94.3771 21.9526C94.6935 21.3 94.8517 20.5776 94.8517 19.7853C94.8517 18.9696 94.6935 18.2472 94.3771 17.618C94.0606 16.9888 93.6103 16.4877 93.0261 16.1149C92.4419 15.742 91.7482 15.5556 90.9449 15.5556C90.2146 15.5556 89.5574 15.742 88.9732 16.1149C88.389 16.4877 87.9265 16.9888 87.5857 17.618C87.2449 18.2472 87.0745 18.9696 87.0745 19.7853Z" fill="#0D0E43"/>
</svg>
